<?xml version="1.0" ?><svg enable-background="new 0 0 512 512" id="Layer_1" version="1.1" viewBox="0 0 512 512" xml:space="preserve" xmlns="http://www.w3.org/2000/svg" xmlns:xlink="http://www.w3.org/1999/xlink"><g><g><linearGradient gradientUnits="userSpaceOnUse" id="SVGID_1_" x1="-0.0000027" x2="512" y1="256" y2="256"><stop offset="0" style="stop-color:#00AEEE"/><stop offset="1" style="stop-color:#0095DA"/></linearGradient><circle cx="256" cy="256" fill="#6366f1" r="256"/><linearGradient gradientUnits="userSpaceOnUse" id="SVGID_2_" x1="42.6666641" x2="469.3333435" y1="256.0005188" y2="256.0005188"><stop offset="0" style="stop-color:#0095DA"/><stop offset="1" style="stop-color:#00AEEE"/></linearGradient><path d="M256,469.3338623c-117.631012,0-213.3333435-95.7023926-213.3333435-213.3333435    c0-117.6314545,95.7023239-213.333313,213.3333435-213.333313c117.6362,0,213.3333435,95.7018661,213.3333435,213.333313    C469.3333435,373.6314697,373.6362,469.3338623,256,469.3338623z" fill="#6366f1"/></g><path d="M364,155.6255951H164.0004578c-11.046402,0-20,8.9541321-20,20v134.1002655c0,11.044281,8.953598,20,20,20   h37.3994598l0.3760834,42.6485291l48.0351257-42.6485291H364c11.0453491,0,20-8.955719,20-20V175.6255951   C384,164.5797272,375.0453491,155.6255951,364,155.6255951z M313.8580627,243.42453H268.999939v44.8581238h-10V243.42453   h-44.8586884v-10h44.8586884v-44.8586578h10V233.42453h44.8581238V243.42453z" opacity="0.3"/><path d="M356,147.6255951H156.0004578c-11.046402,0-20,8.9541321-20,20v134.1002655c0,11.044281,8.953598,20,20,20   h37.3994598l0.3760834,42.6485291l48.0351257-42.6485291H356c11.0453491,0,20-8.955719,20-20V167.6255951   C376,156.5797272,367.0453491,147.6255951,356,147.6255951z M305.8580627,235.42453H260.999939v44.8581238h-10.0000153V235.42453   h-44.8586731v-10h44.8586731v-44.8586578h10.0000153V225.42453h44.8581238V235.42453z" fill="#FFFFFF"/></g></svg>